<?xml version="1.0" encoding="UTF-8"?><svg id="uuid-8df5f99c-2120-47a3-ad0d-1163bfe895dc" xmlns="http://www.w3.org/2000/svg" width="623.65" height="576.99" viewBox="0 0 623.65 576.99"><path d="M39.99,309.61c.06-22.28.02-44.57.22-66.85.09-9.78.27-19.63,4.17-28.89,8.56-20.33,24.57-31.08,45.65-35.02,4.37-.82,8.91-1,13.38-1.01,28.45-.08,56.9-.04,85.35-.03,1.79,0,3.58,0,6,0,0-6.87.18-13.31-.16-19.73-.06-1.17-2.1-2.57-3.52-3.29-22.74-11.48-38.01-29.2-42.24-54.49-4.99-29.85,5.46-54.47,28.94-73.46,15.44-12.5,33.1-18.95,53.05-17.58,16.52,1.13,31.98,5.73,45.13,16.93,3.31-2.83,6.35-5.62,9.58-8.15,12-9.43,25.71-15.01,40.7-17.44,3.59-.58,7.3-.41,10.95-.54,17.46-.64,33.78,3.49,48.36,13.03,7,4.58,13.69,6.6,22.34,6.81,26.41.66,45.53,14.23,56.93,37.81,17.25,35.66-.09,79.09-33.64,94.99-2.19,1.04-4.46,1.91-6.85,2.92v20.65c9.26.71,18.4.29,26.97,2.29,24.36,5.71,42.26,20.47,51.88,43.43,11.81,28.14,22.05,56.94,33.05,85.43,4.07,10.52,8.29,20.99,12.69,31.38.64,1.52,2.46,3.26,4.01,3.57,32.73,6.7,63.17,38.99,61.88,79.05-.59,18.44-.11,36.92.22,55.37.05,2.82,1.14,6.42,3.07,8.26,9.16,8.71,5.7,27.03-1.21,34.27-6.84,7.17-14.72,10.53-24.47,10.48-12.47-.05-24.95.39-37.42.21-4.67-.07-6.79.96-8.71,5.89-6.29,16.12-17.74,28.06-33.58,35.17-28.89,12.96-62.42,4.12-81.6-21.37-3.54-4.7-6.71-9.84-9.04-15.21-1.65-3.79-3.66-4.59-7.38-4.57-24.12.18-48.24.18-72.37.17-45.91-.02-91.83-.04-137.74-.21-4.3-.02-6.37.9-8.29,5.38-2.22,5.2-4.98,9.9-8.24,14.15-7.34,9.54-18.09,16.67-23.65,19.32-2.59,1.23-11.9,5.46-24.87,6.2-3.2.18-13.67.55-26.14-3.59-3.87-1.29-9.76-3.29-16.3-7.95-2.96-2.11-7.47-5.37-11.51-11-3.37-4.69-8.15-11.35-10.31-17.15,0,0-1.76-4.73-4.05-4.96-.16-.02-.81-.05-1.73-.2-1.05-.17-.96-.26-1.53-.31-.94-.08-1.21.14-2.5.11-.43-.01-.72-.06-.94-.06-3.39-.11-6.31-.06-6.31-.06-2.29.04-2.65-.02-5.48-.02-8.52,0-19.02.51-23.17.27-10.67-.62-25.85-9.1-28.88-22.39-3.42-15.02,6.64-29.53,21.89-31.35,5.54-.66,11.14-.9,17.47-1.38,0-14.55,0-29.42,0-44.3.9-.24,1.81-.49,2.71-.73,1.12.04,2.23.08,3.35.12,5.23,0,10.46,0,15.69,0,.76,0,1.52,0,2.28,0,2.24,0,4.48.02,6.72.02,1.09,0,2.18.02,3.27.03,6.4.29,12.8.58,19.21.87-1.85,2-3.84,3.02-5.78,4.16-14.83,8.68-26.94,19.85-33.61,36.15-1.49,3.64-.89,5.45,3.31,5.16,4.42-.31,8.86-.48,13.22-1.15,1.31-.2,2.6-1.72,3.51-2.93,1.18-1.57,1.85-3.52,2.94-5.17,24.18-36.72,76.05-41,106.52-8.69,4.38,4.65,8.11,9.91,12.14,14.88,1.16.88,2.32,1.76,3.48,2.64,0,0,.15.15.15.15l.12-.17c54.37-.04,108.74-.06,163.11-.14,7.64-.01,15.28-.29,22.92-.44,3.77.04,7.54.09,11.31.13,3.92-.03,7.84-.05,11.76-.08,8.14.92,16.27,1.84,19.25-8.69.13-.45.57-.81.86-1.21,9.23-13.11,21.89-21.45,36.89-26.54,1.36-.46,2.73-.92,4.09-1.38l-.1.12c6.95-.4,13.91-.81,20.86-1.21.69.04,1.38.08,2.06.11.7.11,1.41.23,2.11.34,16.36,2.97,30.08,10.82,41.7,22.55l-.03-.05c.35.37.7.73,1.04,1.1l-.08-.09c.34.39.68.78,1.02,1.17,0,0-.13-.12-.13-.12.42.61.84,1.23,1.26,1.84l.02.04c.3.38.6.77.89,1.15l-.08-.1c.35.5.69,1.01,1.04,1.51,1.08,1.83,1.99,3.79,3.27,5.46,1.22,1.59,2.8,4.07,4.29,4.12,11.32.35,22.65.19,34.38.19-.18-1.56-.35-2.98-.52-4.41-.07-17.45-.02-34.9-.24-52.35-.13-10.36-4.07-19.35-10.7-27.27-7.72-9.21-17.87-14.14-29.27-16.92-11.67-2.84-19.76-9.54-24.03-20.99-7.16-19.19-14.62-38.27-21.92-57.4-7.04-18.45-13.75-37.03-21.1-55.35-8.53-21.26-25.08-32.15-47.91-32.22-24.96-.07-49.92-.06-74.88-.07-1.59,0-3.18.14-5.14.23v22.04c-8.53,0-16.66,0-24.78,0-46.09-.02-92.18-.1-138.28,0-8.91.02-16.72,3.41-22.15,10.6-5.09,6.73-8.25,14.19-4.03,22.77.32.65.29,1.48.48,2.5-10.48,0-20.61,0-30.73,0-.67,0-1.63.26-1.94-.07-1.16-1.22-2.72-2.52-3.03-4.01-2.97-14.54-19.28-22.65-32.01-15.77-11.81,6.39-15.21,20.45-7.8,32.17,6.6,10.44,21.67,12.69,32.15,4.95,1.73-1.28,3.98-2.62,6.01-2.64,22.96-.17,45.92-.15,68.89-.03,10.2.05,16.8,6.86,16.79,16.97,0,8.32-.58,16.67.05,24.94.34,4.42,2.52,8.76,4.25,12.97.66,1.62,2.39,2.8,4.33,4.96-8.91,0-16.69.15-24.45-.05-6.01-.15-8.85-2.84-10.52-8.65-.82-2.83-1.81-5.76-3.39-8.21-6.47-9.99-16.22-13.76-27.72-13.76-34.78,0-69.55.05-104.33.02-1.69,0-3.39-.67-5.08-1.02ZM201.84,54.23s.04-.03.04-.03c-1.37.87-2.87,1.57-4.08,2.62-10.34,8.98-14.07,20.38-13.16,33.91.75,11.26,14.22,30.61,28.15,30.91,19.48,3.15,35.7-3.16,49.5-17.69-.27,1.48-.41,2.26-.55,3.03l-.26,1.05.04.31c-.26.53-.51,1.07-.77,1.6-.27.22-.34.49-.21.82-1.64,3.05-3.28,6.1-4.92,9.15-6.42,8.45-15,13.68-25,16.8-.33,1.53-.93,3.05-.94,4.58-.12,10.47-.12,20.95-.15,31.43-.02,7.27,0,14.55,0,22.31,26.76-5.33,53.18-7.7,79.82-7.67,26.62.03,53.1,1.96,79.73,7.01v-48.15c1.06-10.8,1.04-10.84-5.79-12.16-4.62-3.82-8.98-3.75-14.61-1.13-8.67,4.04-17.99,3.49-27.18.57-12.82-4.06-20.96-13.12-27.06-24.52-.66-1.86-1.33-3.72-1.99-5.58.32-.33.64-.66.97-.99,11.05,14.79,26.1,20.35,43.57,18.29,18.27-2.15,29.06-14.13,36.01-31.72,2,12.71-1.03,22.91-7.37,32.75,11.82,1.96,22.73,2.88,32.8-3.76l.26-.13h.03c13.2-8.34,18.93-20.48,17.38-35.8-1.66-16.48-17.85-28.36-32.62-23.75-5.01,1.56-9.36,5.25-14.16,8.05-12.98-19.81-30.13-34-56.07-29.84-28.13,4.52-43.2,23.69-51.02,49.04-3.6-5.32-6.88-11.35-11.3-16.37-4.57-5.19-9.87-9.94-15.53-13.94-16.67-11.77-37.08-12.49-51.86-2.42-.56.47-1.13.95-1.69,1.42ZM99.75,515.32c.11.98-.03,2.08.37,2.92,3.74,7.85,8.35,15.16,16.19,19.45,7.29,3.99,14.77,6.75,23.69,4.85,15.48-3.29,25.29-12.08,28.66-27.25,3.07-12.28-2.21-27.91-12.21-34.53-15.28-10.13-26.03-11.76-40.74-2.62-12.55,7.8-18.95,23.31-15.96,37.17ZM450.43,514.5c.45,2.77.03,6.18,1.51,8.19,6.31,8.58,13.42,16.36,24.4,19.26,18.89,4.99,40.69-8.43,42.76-26.48,3.52-11.7-2.35-27.96-12.97-35.9-12.03-9-28.18-9.64-40.2-1.6-12.92,8.64-19,22.96-15.5,36.52Z" fill="#224651" stroke-width="0"/><path d="M39.99,309.61c1.69.36,3.39,1.02,5.08,1.02,34.78.04,69.55-.01,104.33-.02,11.5,0,21.25,3.76,27.72,13.76,1.59,2.45,2.57,5.37,3.39,8.21,1.68,5.81,4.51,8.51,10.52,8.65,7.76.19,15.54.05,24.45.05-1.94-2.16-3.66-3.34-4.33-4.96-1.73-4.22-3.91-8.56-4.25-12.97-.63-8.27-.05-16.62-.05-24.94,0-10.11-6.59-16.92-16.79-16.97-22.96-.12-45.93-.13-68.89.03-2.02.01-4.27,1.36-6.01,2.64-10.47,7.74-25.54,5.49-32.15-4.95-7.42-11.72-4.01-25.78,7.8-32.17,12.72-6.89,29.04,1.23,32.01,15.77.31,1.49,1.87,2.79,3.03,4.01.32.34,1.28.07,1.94.07,10.13,0,20.25,0,30.73,0-.18-1.02-.15-1.85-.48-2.5-4.22-8.58-1.06-16.04,4.03-22.77,5.43-7.19,13.24-10.58,22.15-10.6,46.09-.1,92.18-.02,138.28,0,8.13,0,16.26,0,24.78,0v-22.04c1.96-.09,3.55-.23,5.14-.23,24.96,0,49.92,0,74.88.07,22.83.07,39.38,10.97,47.91,32.22,7.35,18.32,14.07,36.9,21.1,55.35,7.3,19.14,14.76,38.21,21.92,57.4,4.27,11.44,12.36,18.15,24.03,20.99,11.4,2.77,21.55,7.7,29.27,16.92,6.63,7.92,10.57,16.91,10.7,27.27.23,17.45.18,34.9.24,52.35-.47-2.97-.95-5.93-1.42-8.9,0-6.84,0-13.69,0-21.04h-7.59c-.1-5.94-.16-11.88-.31-17.83-.15-5.87-3.09-9.38-8.24-9.99-6.02-.72-9.36,1.68-11.03,7.93-.25-.02-.51-.03-.76-.02-.2-1.82-.4-3.64-.61-5.5-8.96-1.17-17.97-2.11-26.89-3.63-3.21-.55-7.64-1.62-9.02-3.94-7.77-13.04-15.69-26.11-18.75-41.34-.71-3.54-1.85-7-2.78-10.49-.82-3.08-11.96-12.51-15.86-12.86-4.42-.39-7.06-2.65-9.55-6.13-2.05-2.86-5.15-4.96-7.79-7.4-.53.34-1.06.68-1.59,1.02,0,1.94.12,3.88-.03,5.81-.26,3.56-.67,7.1-1.02,10.65-.24-.05-.47-.05-.71,0v-37.95c-22.82,0-45.19,0-67.56,0-1,0-2.01-.08-2.98.07-.59.09-1.11.55-1.67.85-.31.01-.61.02-.92.02-5.71-.33-11.44-.49-17.14-1.03-4.4-.42-6.01.83-5.96,5.64.25,24.75.12,49.5.12,74.26-.34,9.1-.67,18.21-1.02,27.31-.03.66-.12,1.32-.27,1.96-4.43,18.68-21.93,32.55-41.24,32.58-32.25.04-64.5.22-96.74-.12-9.85-.1-19.8-.74-29.12-5.06-22.27-10.33-45.34-18.63-69.42-23.38-14.2-2.8-28.76-4.02-43.23-5.17-9.58-.76-19.27-.16-28.91-.16q-10.73,0-10.5,10.97c.25.48.49.96.74,1.43-.9.24-1.81.49-2.71.73.08-6.01-.07-12.04.36-18.03.16-2.24,1.67-4.38,2.56-6.57,2.47.15,4.96.61,7.4.41,20.42-1.66,40.76-.41,60.91,2.58,29.24,4.34,57.13,13.54,84.17,25.34,8.02,3.5,16.22,5.63,25.06,5.59,32.1-.12,64.19.03,96.29-.1,18.62-.07,30.58-12.2,30.63-30.7.04-16.63.03-33.26.01-49.89,0-1.09-.25-2.17-.4-3.35-1.14-.06-1.95-.14-2.77-.14-38.41.03-76.83.09-115.24.1-13.47,0-26.94.21-40.4-.21-10.55-.33-18.99-7.26-21.41-16.54-2.61-10.01-7.82-14.17-18.14-14.19-35.09-.05-70.18-.03-105.27.01-1.25,0-2.5.54-3.76.83-.54-4.76-1.15-9.52-1.55-14.3-.05-.57.98-1.22,1.51-1.84ZM386.62,278.11c-1.4-5.78-3.58-11.5-4.02-17.36-.89-11.73-.87-23.53-1.16-35.3-.1-3.99-.09-7.99,0-11.98.06-2.37-.53-3.79-3.3-3.71-4.32.13-8.66-.15-12.97.16-1.16.08-3.14,1.62-3.17,2.53-.34,12.4-.48,24.82-.49,37.23,0,3.45.86,6.91.82,10.36-.15,10.44-.62,20.88-.76,31.32-.01,1.07,1.35,3.1,2.06,3.09,7.6-.08,15.19-.47,22.78-.78,1.02.42,2.03.84,3.05,1.26.3,0,.6,0,.9-.01,6.36,0,12.73-.02,19.09-.02h9.84c5.04,0,10.08-.01,15.11-.01,3.28,0,6.57,0,9.85,0h2.13l11.94-.14c0-3.81-.17-7.64.06-11.44.86-13.78-11.36-21.82-21.59-21.6-9.14.2-18.29.05-27.44.13-13.59.11-18.32,3.52-22.73,16.26ZM347.02,294.43v-48.78c-7.31,0-14.28,0-21.25,0-46.59-.05-93.18-.14-139.77-.09-3.07,0-6.39.44-9.17,1.66-5.02,2.19-6.68,7.39-5.09,13.59,1.33,5.18,3.4,6.48,9.96,6.31,2.99-.08,5.99-.16,8.98-.16,16.11-.02,29.79,14.27,29.43,28.89-.18,7.48.14,14.97.26,22.45.2,13.06,9.67,22.48,22.75,22.5,33.28.05,66.56.05,99.83.05,1.29,0,2.59-.13,4.06-.21v-30.63c-12.81,0-25.28-.09-37.74.12-1.45.02-3.16,1.48-4.25,2.72-6.93,7.94-19.69,9.76-28.64,3.93-10.13-6.6-13.49-19.21-7.94-29.82,4.96-9.51,16.81-14.02,26.9-10.46,8.55,3.01,12.82,9.44,14.63,17.96h37.05Z" fill="#fbfbee" stroke-width="0"/><path d="M40.04,325.75c1.25-.29,2.5-.83,3.76-.83,35.09-.04,70.18-.06,105.27-.01,10.33.01,15.53,4.18,18.14,14.19,2.42,9.28,10.86,16.21,21.41,16.54,13.46.42,26.93.22,40.4.21,38.41-.02,76.83-.07,115.24-.1.81,0,1.63.08,2.77.14.15,1.18.4,2.26.4,3.35.02,16.63.03,33.26-.01,49.89-.05,18.5-12.01,30.63-30.63,30.7-32.1.13-64.19-.03-96.29.1-8.84.03-17.04-2.09-25.06-5.59-27.04-11.8-54.93-21-84.17-25.34-20.16-2.99-40.5-4.25-60.91-2.58-2.44.2-4.93-.26-7.4-.41-.94-.71-2.7-1.42-2.7-2.12.02-6.2.36-12.41.6-18.61,2.99.07,5.98.25,8.96.19,44.45-1.01,88.29,3.31,130.44,17.96,13.34,4.64,26.45,4.98,39.97,4.91,15.76-.08,31.52-.21,47.28-.31,2.66.5,5.39-.72,7.48,3,5.06,9.04,15.31,12.4,24.96,9.13,9.88-3.35,15.5-12.63,14.54-23.99-.74-8.75-8.62-17.25-17.42-18.79-10.66-1.86-20.21,2.8-24.14,12.32-1.14,2.77-2.57,3.24-5.14,3.22-13.14-.12-26.28.13-39.4-.24-5.23-.15-10.58-1.04-15.62-2.48-19.1-5.47-37.98-11.73-57.16-16.89-37.51-10.1-75.94-12.2-114.58-11.9-.35-1.73-.98-3.46-1-5.19-.08-10.14-.01-20.28,0-30.42Z" fill="#224651" stroke-width="0"/><path d="M41.03,361.37c38.64-.3,77.07,1.8,114.58,11.9,19.18,5.16,38.06,11.43,57.16,16.89,5.04,1.44,10.38,2.34,15.62,2.48,13.13.37,26.27.12,39.4.24,2.57.02,4-.45,5.14-3.22,3.93-9.52,13.47-14.18,24.14-12.32,8.79,1.53,16.68,10.03,17.42,18.79.96,11.37-4.66,20.65-14.54,23.99-9.65,3.27-19.9-.09-24.96-9.13-2.09-3.73-4.82-2.5-7.48-3-12.99-.85-26-1.58-38.98-2.62-4.9-.39-9.93-.95-14.58-2.44-16.32-5.22-32.24-11.89-48.79-16.12-18.8-4.81-37.99-8.57-57.24-10.98-18.49-2.31-37.26-2.29-55.91-3.33-4.57-.25-9.05-.43-11.97,4.07.33-5.07.67-10.15,1-15.22Z" fill="#fbfbee" stroke-width="0"/><path d="M40.03,376.58c2.92-4.51,7.41-4.33,11.97-4.07,18.65,1.04,37.43,1.02,55.91,3.33,19.25,2.41,38.44,6.17,57.24,10.98,16.55,4.23,32.47,10.89,48.79,16.12,4.65,1.49,9.68,2.04,14.58,2.44,12.98,1.05,25.99,1.77,38.98,2.62-15.76.11-31.52.23-47.29.31-13.52.07-26.62-.27-39.97-4.91-42.15-14.65-85.99-18.97-130.44-17.96-2.98.07-5.97-.12-8.96-.19-.28-2.89-.55-5.78-.82-8.66Z" fill="#fbe3c3" stroke-width="0"/><path d="M42,428.41q-.23-10.97,10.5-10.97c9.64,0,19.33-.6,28.91.16,14.46,1.15,29.02,2.37,43.23,5.17,24.08,4.75,47.15,13.05,69.42,23.38,9.32,4.33,19.27,4.96,29.12,5.06,32.24.34,64.49.16,96.74.12,19.31-.02,36.81-13.89,41.24-32.58.15-.64.25-1.31.27-1.96.35-9.1.68-18.21,1.02-27.31,1.34-2.74,2.7-5.47,4-8.23.75-1.58,1.4-3.21,2.1-4.82.52.22,1.04.44,1.56.67.11.79.4,1.61.3,2.38-.69,5.24,1.85,8.08,6.69,9.32,1.44.37,2.85.8,4.29,1.17,3.34.88,5.5,2.32,6.63,6.23,2.6,9.04,2.98,9.04,12.61,9.2,3.31.06,4.63,1.08,4.87,4.57.36,5.04.88,10.3,5.89,13.43l-.02,1.01h0c-.99,1.01-1.98,2.04-2.96,3.06,0,0,.03-.05.03-.05-.35.35-.69.7-1.04,1.05l.05-.05c-.35.35-.69.7-1.04,1.06l.05-.05c-.35.36-.69.71-1.04,1.07l.06-.07c-.36.66-.72,1.33-1.09,1.99h0c-.33.36-.66.73-1,1.09-.12.32-.25.64-.37.96-.29.17-.51.4-.68.69-.35.4-.71.81-1.06,1.21-.3.36-.6.72-.9,1.07l.04-.03c-.67,1.01-1.34,2.01-2.02,3.02-.25.33-.51.67-.76,1-.41.68-.81,1.35-1.22,2.03l.04-.05c-.36.66-.72,1.33-1.08,1.99,0,0,.01-.02.01-.02-.3.46-.6.92-.9,1.38-.73,1.52-1.46,3.05-2.18,4.57-1.95,1.94-4.75,3.52-2.99,7.03-.22.68-.44,1.35-.66,2.03-.41,1.03-.82,2.06-1.23,3.09-.21.65-.43,1.3-.64,1.95-.6.92-1.71,1.83-1.72,2.75,0,6.3-4.05,6.21-8.71,6.2-58.02-.09-116.05-.04-174.07-.09-2.26,0-4.52-.67-6.78-1.03-4.03-4.98-7.76-10.24-12.14-14.88-30.47-32.31-82.34-28.04-106.52,8.69-1.09,1.65-1.76,3.6-2.94,5.17-.91,1.21-2.21,2.73-3.51,2.93-4.36.67-8.81.84-13.22,1.15-4.2.3-4.8-1.52-3.31-5.16,6.67-16.3,18.78-27.48,33.61-36.15,1.93-1.13,3.93-2.16,5.78-4.16-6.4-.29-12.8-.58-19.21-.87,2.23-.34,4.47-.68,6.7-1.02-.02-.19-.04-.38-.06-.57h-38.69Z" fill="#fcdfb8" stroke-width="0"/><path d="M203.53,52.81c14.78-10.07,35.2-9.35,51.86,2.42,5.65,3.99,10.96,8.75,15.53,13.94,4.42,5.02,7.7,11.05,11.3,16.37,7.82-25.36,22.89-44.53,51.02-49.04,25.94-4.16,43.08,10.02,56.07,29.84,4.79-2.8,9.14-6.49,14.16-8.05,14.77-4.61,30.96,7.27,32.62,23.75,1.55,15.33-4.18,27.47-17.38,35.81-3.48-11.02-6.65-22.14-10.55-33.01-2.05-5.71-5.26-11.02-8.19-16.37-1.06-1.94-2.92-3.72-5.09-1.09-2.63,3.18-5.44,6.32-7.46,9.89-6.48,11.47-16.02,19.15-28.78,21.7-14.54,2.91-28.87,2.07-40.88-8.24-4.59-3.93-8.65-8.48-13.07-12.87-4.1,5.19-8.34,10.48-12.5,15.84-3.32,4.28-5.21,4.31-8.22-.01-1.32-1.9-2.73-3.75-3.9-5.75-6.88-11.81-19.16-16.15-31.63-10.76-8.42,3.64-16.23,8.19-21.71,16.02-1.15,1.64-4.18,3.74-5.37,3.25-4.95-2.03-10.01-4.38-14.12-7.72-4.32-3.51-8.23-4.39-13.31-1.88-.09,1.75-.19,3.55-.28,5.35-3.45-12.42-2.58-24.01,6.31-34.18.91-1.04,1.3-2.53,1.93-3.81,0,0-.04.03-.04.03.56-.47,1.13-.95,1.69-1.42Z" fill="#fbfbee" stroke-width="0"/><path d="M314.43,108.98c6.1,11.39,14.23,20.45,27.06,24.52,9.2,2.91,18.52,3.46,27.18-.57,5.63-2.62,9.99-2.69,14.61,1.13-2.32.45-4.64.9-6.92,1.35,5.6,4.21,6.22,15.74,2.06,18,.92,2.31,1.8,4.5,2.89,7.24-5.76-.27-9.99-.47-14.23-.67-.02.48-.04.96-.06,1.43,3.05.23,6.12.29,9.14.72,5.71.8,6.69,3.37,4.31,6.81.29,3.04,1.02,4.98.42,6.34-.41.92-2.69,1.39-4.13,1.39-3.26,0-6.53-.42-9.79-.67-.04.54-.08,1.09-.11,1.63,3.52.37,7.03.76,10.55,1.11,4.01.4,5.33,2.96,3.23,6.42-.46.76-1.04,1.44-2,2.74,2.97.33,5.27.59,7.91.89,0-2.13,0-3.45,0-4.76-.05-11.29-.14-22.58-.11-33.87,0-1.72-.89-4.43,2.65-3.94v48.15c-26.63-5.05-53.11-6.98-79.73-7.01-26.64-.03-53.06,2.34-79.82,7.67,0-7.76-.01-15.03,0-22.31.02-10.48.03-20.95.15-31.43.02-1.53.62-3.06.94-4.58.37,1.35,1.06,2.7,1.07,4.06.09,12.62.07,25.24.08,37.86,0,3.61,0,7.22,0,11.28,6.37-1.29,12.12-2.82,17.98-3.52,4.41-.53,6.56-2.26,6.25-6.73,6.1-.95,12.2-1.9,18.3-2.85-.13-.7-.25-1.39-.38-2.09-5.63.74-11.27,1.48-16.9,2.21-.08-1.75-.17-3.51-.25-5.26,5.85-.95,11.7-1.9,17.56-2.85-.09-.57-.18-1.14-.28-1.71-5.72.62-11.45,1.24-17.17,1.86-1.51-4.57.18-6.28,4.93-6.31,4.09-.02,8.17-.92,12.25-1.42-.07-.5-.14-.99-.21-1.49-3.88.41-7.76.92-11.65,1.19-1.93.13-4.59,1.3-4.9-2.28-.28-3.29,1.83-3.72,4.41-3.95,4.11-.36,8.19-.96,12.29-1.46-.06-.5-.12-1-.18-1.5-4.02.41-8.04,1.05-12.07,1.12-1.56.03-4.26-.93-4.51-1.93-.62-2.47.59-4.13,3.78-4.34,4.38-.29,8.7-1.33,13.05-2.05-.08-.45-.15-.9-.23-1.34-3.74.47-7.49.84-11.21,1.43-5.46.87-6.33,0-5.42-5.77,5.61-.83,11.23-1.66,16.84-2.49-.06-.44-.11-.89-.17-1.33-1.94,0-3.89-.12-5.82.03-3.72.29-7.43.73-11.15,1.11-.08-.59-.16-1.19-.23-1.78.01-.62.03-1.23.04-1.85.02-.3.14-.56.35-.78,5.03-1.18,10.06-2.35,15.09-3.53-.1-.45-.19-.9-.29-1.35-4.97.72-9.94,1.44-14.91,2.16-.45-3.06-.9-6.11-1.35-9.17,1.64-3.05,3.28-6.1,4.92-9.15-.32,4.23,1.54,4.66,5.14,3.39,5.36-1.89,10.57-5.71,16.7-1.39,1.2.85,3.82-.19,5.76-.54,5.62-1.03,11.18-2.36,16.83-3.16,3.09-.44,6.3-.07,9.46-.07Z" fill="#fbfbee" stroke-width="0"/><path d="M314.43,108.98c-3.16,0-6.37-.37-9.46.07-5.64.81-11.21,2.13-16.83,3.16-1.93.35-4.56,1.39-5.76.54-6.13-4.32-11.34-.49-16.7,1.39-3.61,1.27-5.47.84-5.14-3.39-.13-.32-.06-.6.21-.82.26-.53.51-1.07.77-1.6,0,0-.04-.31-.04-.31.09-.35.17-.7.26-1.05.14-.77.28-1.55.55-3.03-13.79,14.53-30.01,20.84-49.5,17.69-1.16-1.69-1.96-3.92-3.55-4.97-8.89-5.89-14.41-13.77-15.6-24.49.1-1.8.19-3.6.28-5.35,5.08-2.51,8.99-1.64,13.31,1.88,4.11,3.35,9.17,5.7,14.12,7.72,1.19.49,4.22-1.61,5.37-3.25,5.48-7.82,13.29-12.38,21.71-16.02,12.47-5.39,24.75-1.06,31.63,10.76,1.16,2,2.57,3.85,3.9,5.75,3.01,4.33,4.9,4.29,8.22.01,4.16-5.35,8.39-10.65,12.5-15.84,4.42,4.39,8.49,8.93,13.07,12.87,12.02,10.31,26.35,11.15,40.88,8.24,12.76-2.55,22.3-10.22,28.78-21.7,2.01-3.56,4.83-6.71,7.46-9.89,2.18-2.63,4.03-.85,5.09,1.09,2.93,5.36,6.14,10.67,8.19,16.37,3.9,10.86,7.08,21.99,10.55,33.01,0,0-.03,0-.03,0-.19-.16-.38-.33-.57-.49.1.21.21.42.31.62-10.07,6.64-20.98,5.72-32.8,3.76,6.34-9.84,9.37-20.04,7.37-32.75-6.95,17.59-17.75,29.57-36.01,31.72-17.47,2.06-32.52-3.5-43.57-18.29-.32.33-.64.66-.97.99.66,1.86,1.33,3.72,1.99,5.58Z" fill="#fcefd7" stroke-width="0"/><path d="M553.14,421.42c.25,0,.51,0,.76.02.23,9.59.45,19.19.68,28.78-2.98.05-5.95.12-8.93.16-6.69.08-9.27,2.53-9.54,9.07-11.62-11.73-25.34-19.58-41.7-22.55-.7-.11-1.41-.22-2.11-.34-.69-.04-1.38-.08-2.06-.11-3.1-.67-6.25-2.09-9.27-1.84-3.92.32-7.73,1.97-11.59,3.05,0,0,.1-.12.1-.12-1.36.46-2.73.92-4.09,1.38-15,5.09-27.66,13.44-36.89,26.54-.29.41-.73.76-.86,1.21-2.98,10.53-11.11,9.61-19.25,8.69,3.31-7.47,5.7-15.55,10.13-22.29,7.74-11.77,19.11-20.03,30.84-27.64,9.45-2.77,18.9-5.52,28.34-8.32,4.85-1.44,6.39-4.13,5.66-9.37-.13-.9.22-1.87.18-1.57,6.98-.56,13.41-1.08,19.84-1.56.81-.06,1.63.16,2.44.17,8,.11,10.89,7.12,15.24,11.79,3.38,3.64,14.5,9.49,19.27,8.2,3.86-1.04,6.3.08,8.19,3.46.85,1.52,2.3,2.71,3.47,4.05.38-.19.77-.38,1.15-.58v-10.31Z" fill="#fbe3c3" stroke-width="0"/><path d="M450.43,514.51c-3.49-13.56,2.58-27.88,15.5-36.52,12.02-8.04,28.17-7.4,40.2,1.6,10.61,7.94,16.49,24.2,12.97,35.89-4.59-.14-9.17-.28-13.76-.43.04-1.16.04-2.33.13-3.48,1.18-14.49-13.67-25.94-27.31-21.04-9.72,3.49-14.35,11.45-13.88,23.84-4.62.05-9.23.1-13.85.15Z" fill="#61d5d8" stroke-width="0"/><path d="M99.75,515.32c-2.99-13.86,3.41-29.37,15.96-37.17,14.71-9.14,25.45-7.51,40.74,2.62,9.99,6.62,15.28,22.26,12.21,34.53-4.35-.02-8.71-.04-13.06-.06.03-1.32.08-2.65.08-3.97.05-8.67-6.09-17.43-14.48-20.7-7.53-2.93-16.2-.35-22.4,6.37-4.8,5.21-5.21,11.54-5.24,18.06-4.6.11-9.2.21-13.8.32Z" fill="#61d5d8" stroke-width="0"/><path d="M256,179.65c.31,4.48-1.84,6.21-6.25,6.73-5.85.7-11.61,2.23-17.98,3.52,0-4.07,0-7.67,0-11.28-.01-12.62.01-25.24-.08-37.86-.01-1.35-.7-2.7-1.07-4.06,10-3.12,18.59-8.35,25-16.8.45,3.06.9,6.11,1.34,9.17.04.91.07,1.81.11,2.72-.21.22-.33.48-.35.77-.01.61-.03,1.23-.04,1.85.08.59.16,1.19.23,1.78.1.89.2,1.79.3,2.68-.92,5.77-.04,6.64,5.42,5.77,3.72-.59,7.47-.96,11.21-1.43.08.45.15.9.23,1.34-4.35.72-8.67,1.76-13.05,2.05-3.19.21-4.4,1.87-3.78,4.34.25,1,2.95,1.96,4.51,1.93,4.03-.07,8.05-.71,12.07-1.12.06.5.12,1,.18,1.5-4.1.5-8.18,1.09-12.29,1.46-2.58.23-4.69.66-4.41,3.95.31,3.58,2.97,2.41,4.9,2.28,3.89-.27,7.77-.78,11.65-1.19.07.5.14.99.21,1.49-4.08.51-8.17,1.4-12.25,1.42-4.75.03-6.44,1.73-4.93,6.3-.04.9-.07,1.8-.1,2.7.08,1.75.17,3.51.25,5.26-.34.91-.68,1.82-1.02,2.72Z" fill="#61d5d8" stroke-width="0"/><path d="M392.33,451.35c.73-1.52,1.46-3.05,2.18-4.58.3-.46.6-.92.9-1.38,0,0-.01.02-.01.02.36-.66.72-1.33,1.08-1.99,0,0-.04.05-.04.05.41-.68.81-1.35,1.22-2.03.25-.33.51-.67.76-1,.67-1.01,1.34-2.01,2.02-3.02,0,0-.04.03-.04.03.3-.36.6-.72.9-1.07.35-.4.71-.81,1.06-1.21.23-.23.45-.46.68-.69.12-.32.25-.64.37-.96.33-.37.66-.74,1-1.1,0,0,0,.01,0,.01.36-.66.72-1.33,1.09-1.99,0,0-.06.07-.06.07.35-.36.69-.71,1.04-1.06,0,0-.05.05-.05.05.35-.35.69-.7,1.04-1.06,0,0-.05.05-.05.05.35-.35.69-.7,1.04-1.05,0,0-.03.05-.03.05.99-1.02,1.98-2.04,2.96-3.06,0,0,0,0,0,0,.35-.32.7-.64,1.06-.96,0,0-.03.02-.03.02.33-.35.67-.7,1-1.04,0,0-.02.02-.02.02.35-.34.69-.67,1.04-1.01l-.03.03c.6-.37,1.21-.74,1.81-1.11l.15-.11c.34-.28.68-.56,1.02-.84h0c1.32-1.01,2.63-2.01,3.95-3.02l.03-.02c.34-.32.68-.63,1.02-.95,0,0-.01,0-.01,0,.64-.35,1.28-.7,1.92-1.05l.06-.04c.36-.3.72-.59,1.09-.89,0,0-.05.05-.05.05.66-.36,1.32-.71,1.98-1.07h0c1.3-.67,2.6-1.35,3.91-2.02l.07-.05c2.7-1.28,5.4-2.56,8.1-3.83v.07c4.76-1.35,9.51-2.7,14.26-4.05.54-.04,1.09-.09,1.63-.13,1.39-.26,2.78-.52,4.17-.78.93-.09,1.86-.17,2.79-.26,4.05.2,8.1.4,12.15.61-11.51,3.3-23.35,7.86-30.06,12.56-6.63,4.49-13.86,8.32-19.78,13.61-14.23,12.71-22.2,29.42-27.96,47.29-3.77-.04-7.54-.09-11.31-.13.5-3.29.99-6.59,1.49-9.88.21-.65.43-1.3.64-1.96.41-1.03.82-2.06,1.23-3.09.22-.68.44-1.35.66-2.03,1-2.34,2-4.69,2.99-7.03Z" fill="#61d5d8" stroke-width="0"/><path d="M99.75,515.32c4.6-.11,9.2-.21,13.8-.32,2.84,3.35,5.51,6.86,8.54,10.01,8.37,8.7,21.46,5.33,27.69-1.85,2.14-2.46,3.88-5.28,5.8-7.93,4.35.02,8.71.04,13.06.06-3.36,15.17-13.17,23.96-28.66,27.25-8.91,1.9-16.4-.86-23.69-4.85-7.84-4.29-12.45-11.6-16.19-19.45-.4-.84-.26-1.94-.37-2.92Z" fill="#fcdfb8" stroke-width="0"/><path d="M505.34,515.05c4.59.14,9.17.28,13.76.43-2.06,18.05-23.86,31.48-42.76,26.48-10.98-2.9-18.08-10.68-24.4-19.26-1.48-2.01-1.06-5.42-1.51-8.19,4.62-.05,9.23-.1,13.85-.15,2.03,8.09,13.29,17.28,22.56,15.89,9.31-1.39,14.88-7.04,18.5-15.21Z" fill="#fcdfb8" stroke-width="0"/><path d="M536.11,459.45c.27-6.54,2.85-8.99,9.54-9.07,2.98-.04,5.95-.1,8.93-.16.2.35.41.69.61,1.04.33.37.66.74.99,1.1l2.98,2.16c1.99.49,3.97.98,5.96,1.47.98-.25,1.96-.51,2.94-.76,4.34,2.38,8.68,4.76,13.02,7.13.47,2.97.95,5.93,1.42,8.9.17,1.42.34,2.85.52,4.41-11.73,0-23.06.16-34.38-.19-1.48-.05-3.06-2.53-4.29-4.12-1.29-1.67-2.2-3.63-3.27-5.46-.35-.5-.69-1.01-1.04-1.51,0,0,.08.1.08.1-.3-.38-.6-.77-.89-1.15l-.02-.04c-.42-.61-.84-1.23-1.26-1.84,0,0,.13.12.13.12-.34-.39-.68-.78-1.02-1.17,0,0,.08.09.08.09-.35-.37-.7-.73-1.04-1.1l.03.05Z" fill="#fcdfb8" stroke-width="0"/><path d="M396.62,475.46c5.76-17.87,13.74-34.58,27.96-47.29,5.92-5.29,13.15-9.12,19.78-13.61,1.01,2.11,2.05,4.21,3.03,6.33.69,1.5,1.3,3.04,1.95,4.56-11.73,7.61-23.1,15.87-30.84,27.64-4.43,6.74-6.82,14.81-10.13,22.29-3.92.03-7.84.05-11.76.08Z" fill="#fbfbee" stroke-width="0"/><path d="M193.65,92.19c1.19,10.72,6.71,18.6,15.6,24.49,1.59,1.05,2.39,3.28,3.55,4.97-13.94-.3-27.4-19.64-28.15-30.91-.91-13.53,2.82-24.93,13.16-33.91,1.21-1.05,2.71-1.76,4.08-2.62-.63,1.28-1.02,2.77-1.93,3.81-8.89,10.17-9.76,21.76-6.31,34.18Z" fill="#61d5d8" stroke-width="0"/><path d="M389.07,146.21c-3.54-.49-2.64,2.22-2.65,3.94-.03,11.29.06,22.58.11,33.87,0,1.31,0,2.62,0,4.76-2.64-.3-4.94-.55-7.91-.89.96-1.3,1.55-1.98,2-2.74,2.1-3.46.78-6.02-3.23-6.42-3.52-.35-7.03-.74-10.55-1.11.04-.54.08-1.09.11-1.63,3.26.25,6.53.67,9.79.67,1.44,0,3.72-.47,4.13-1.39.6-1.36-.13-3.31-.42-6.34,2.38-3.43,1.4-6-4.31-6.81-3.02-.42-6.09-.49-9.14-.72.02-.48.04-.96.06-1.43,4.24.2,8.48.4,14.23.67-1.1-2.74-1.97-4.92-2.89-7.24,4.17-2.27,3.55-13.79-2.06-18,2.28-.44,4.6-.89,6.92-1.35,6.83,1.32,6.85,1.36,5.79,12.16Z" fill="#61d5d8" stroke-width="0"/><path d="M386.81,465.45c-.5,3.29-.99,6.59-1.49,9.88-7.64.15-15.28.43-22.92.44-54.37.08-108.74.1-163.11.14,0,0-.14-.22-.14-.22,0,0-.13.23-.13.23-1.16-.88-2.32-1.76-3.48-2.64,2.26.36,4.52,1.03,6.78,1.03,58.02.05,116.05,0,174.07.09,4.66,0,8.7.1,8.71-6.2,0-.92,1.12-1.83,1.72-2.75Z" fill="#fcefd7" stroke-width="0"/><path d="M42,428.41h38.69c.02.19.04.38.06.57-2.23.34-4.47.68-6.7,1.02-1.09,0-2.18-.02-3.27-.03-2.24,0-4.48-.02-6.72-.02-.76,0-1.52,0-2.28,0-5.23,0-10.46,0-15.69,0-1.12-.04-2.23-.08-3.35-.12-.25-.48-.49-.96-.74-1.43Z" fill="#fbe3c3" stroke-width="0"/><path d="M469.37,437.66c3.86-1.08,7.67-2.72,11.59-3.05,3.02-.25,6.18,1.16,9.27,1.84-6.95.4-13.91.81-20.86,1.21Z" fill="#fcefd7" stroke-width="0"/><path d="M46.09,429.96c5.23,0,10.46,0,15.69,0-5.23,0-10.46,0-15.69,0Z" fill="#fcdfb8" stroke-width="0"/><path d="M64.06,429.95c2.24,0,4.48.02,6.72.02-2.24,0-4.48-.02-6.72-.02Z" fill="#fcdfb8" stroke-width="0"/><path d="M465.38,438.93c1.36-.46,2.73-.92,4.09-1.38-1.36.46-2.73.92-4.09,1.38Z" fill="#fcefd7" stroke-width="0"/><path d="M203.53,52.81c-.56.47-1.13.95-1.69,1.42.56-.47,1.13-.95,1.69-1.42Z" fill="#61d5d8" stroke-width="0"/><path d="M537.94,461.46c.42.61.84,1.23,1.26,1.84-.42-.61-.84-1.23-1.26-1.84Z" fill="#fbe3c3" stroke-width="0"/><path d="M492.3,436.56c.7.11,1.4.22,2.11.34-.7-.11-1.4-.22-2.11-.34Z" fill="#fcefd7" stroke-width="0"/><path d="M536.08,459.4c.35.37.7.73,1.04,1.1-.35-.37-.7-.73-1.04-1.1Z" fill="#fbe3c3" stroke-width="0"/><path d="M537.04,460.41c.34.39.68.78,1.02,1.17-.34-.39-.68-.78-1.02-1.17Z" fill="#fbe3c3" stroke-width="0"/><path d="M539.22,463.34c.3.38.59.77.89,1.15-.3-.38-.59-.77-.89-1.15Z" fill="#fbe3c3" stroke-width="0"/><path d="M540.03,464.4c.35.5.69,1.01,1.04,1.51-.35-.5-.69-1.01-1.04-1.51Z" fill="#fbe3c3" stroke-width="0"/><path d="M199.01,475.92l.13-.23s.15.21.14.22-.12.17-.12.17l-.15-.15Z" fill="#61d5d8" stroke-width="0"/><path d="M418.42,117.96c-.1-.21-.21-.42-.31-.62.19.16.38.32.57.49,0,0-.26.13-.26.13Z" fill="#fbfbee" stroke-width="0"/><path d="M261.53,108.33c-.26.53-.51,1.07-.77,1.6.26-.53.51-1.07.77-1.6Z" fill="#fbfbee" stroke-width="0"/><path d="M261.75,106.98c-.09.35-.17.7-.26,1.05.09-.35.17-.7.26-1.05Z" fill="#fbfbee" stroke-width="0"/><path d="M347.02,294.43h-37.05c-1.81-8.52-6.08-14.95-14.63-17.96-10.1-3.56-21.94.96-26.9,10.46-5.54,10.62-2.19,23.22,7.94,29.82,8.95,5.83,21.7,4.01,28.64-3.93,1.08-1.24,2.8-2.69,4.25-2.72,12.46-.21,24.93-.12,37.74-.12v30.63c-1.47.08-2.76.21-4.06.21-33.28,0-66.56,0-99.83-.05-13.09-.02-22.55-9.44-22.75-22.5-.12-7.48-.44-14.97-.26-22.45.36-14.62-13.32-28.91-29.43-28.89-2.99,0-5.99.08-8.98.16-6.56.17-8.63-1.13-9.96-6.31-1.59-6.2.08-11.4,5.09-13.59,2.78-1.21,6.09-1.65,9.17-1.66,46.59-.04,93.18.04,139.77.09,6.97,0,13.94,0,21.25,0v48.78Z" fill="#224651" stroke-width="0"/><path d="M462.28,401.4c-.93.09-1.86.17-2.8.26-1.72-1.5-3.29-2.22-4.17.78-.54.04-1.09.09-1.64.13-1.33-.03-2.78-.42-3.96-.02-3.49,1.19-6.87,2.69-10.3,4.07,0,0,0-.07,0-.07-2.7,1.28-5.4,2.56-8.1,3.83,0,0-.07.05-.07.05-1.3.67-2.6,1.35-3.91,2.02,0,0,0,0,0,0-.66.36-1.32.71-1.98,1.07,0,0,.05-.05.05-.05-.36.3-.72.59-1.09.89,0,0-.06.04-.06.04-.64.35-1.28.7-1.92,1.05,0,0,.01,0,.01,0-.34.32-.68.63-1.02.95,0,0-.03.02-.03.02-1.32,1.01-2.63,2.01-3.95,3.02,0,0,0,0,0,0-.34.28-.68.56-1.02.84,0,0-.15.11-.15.11-.6.37-1.21.74-1.82,1.1,0,0,.03-.03.03-.03-.35.34-.69.67-1.04,1.01,0,0,.02-.02.02-.02-.33.35-.67.7-1,1.04,0,0,.03-.02.03-.02-.35-.02-.69-.03-1.04-.05-5.01-3.13-5.53-8.39-5.89-13.43-.25-3.5-1.56-4.52-4.87-4.57-9.63-.16-10-.16-12.61-9.2-1.13-3.92-3.29-5.36-6.63-6.23-1.43-.38-2.85-.8-4.29-1.17-4.84-1.24-7.39-4.08-6.69-9.32.1-.77-.19-1.59-.3-2.38-.52-.22-1.04-.44-1.56-.67-.7,1.61-1.35,3.23-2.1,4.82-1.3,2.76-2.66,5.49-4,8.23,0-24.75.14-49.51-.12-74.26-.05-4.81,1.56-6.05,5.96-5.64,5.69.54,11.42.7,17.14,1.03,0,10.63-.06,21.25.04,31.88.02,1.7.7,3.4,1.07,5.1.3,1.08.62,2.16.91,3.25,1.97,7.49,9.51,14.51,16,14.88.93.59,1.89,1.72,2.8,1.69,13.18-.42,26.36-1.01,39.54-1.54,1.39-.06,2.79,0,4.39,0-.39,6.23,2.81,8.35,8.07,8.71,5.92.41,11.77,1.77,13.99,8.09,1.94,5.54,2.89,11.43,4.3,17.27-4.59.47-9.42.96-14.24,1.45Z" fill="#fbe3c3" stroke-width="0"/><path d="M403.43,365.73c-6.49-.37-14.03-7.38-16-14.88-.29-1.09-.6-2.17-.91-3.25-.06-12.33-.13-24.67-.19-37,.55-.3,1.08-.76,1.67-.85.97-.15,1.98-.07,2.98-.07,22.37,0,44.74,0,67.56,0,0,12.86,0,25.4,0,37.94-.23.26-.26.54-.09.84-4.48,13.57-9.27,17.05-23.62,17.13-10.47.06-20.93.09-31.4.14Z" fill="#224651" stroke-width="0"/><path d="M403.43,365.73c10.47-.05,20.93-.08,31.4-.14,14.35-.08,19.14-3.56,23.62-17.13.27-.28.53-.56.8-.84.35-3.55.76-7.09,1.02-10.65.14-1.93.03-3.87.03-5.81.53-.34,1.06-.68,1.59-1.02,2.64,2.44,5.74,4.54,7.79,7.4,2.49,3.47,5.13,5.74,9.55,6.13,3.9.34,15.04,9.78,15.86,12.86.93,3.5,2.07,6.95,2.78,10.49,3.06,15.23,10.98,28.3,18.75,41.34,1.38,2.32,5.81,3.39,9.02,3.94,8.92,1.52,17.93,2.46,26.89,3.63.21,1.86.41,3.68.61,5.5,0,3.44,0,6.87,0,10.31-.38.19-.77.38-1.15.58-1.18-1.34-2.62-2.53-3.47-4.05-1.89-3.39-4.33-4.51-8.19-3.46-4.77,1.29-15.88-4.57-19.27-8.2-4.35-4.68-7.24-11.69-15.24-11.79-.82-.01-1.64-.23-2.44-.17-6.43.48-12.86,1.01-19.84,1.56.04-.3-.31.67-.18,1.57.73,5.24-.82,7.93-5.66,9.37-9.44,2.8-18.89,5.55-28.34,8.32-.65-1.52-1.26-3.06-1.95-4.56-.98-2.12-2.02-4.22-3.03-6.33,6.71-4.69,18.56-9.26,30.06-12.56-4.05-.2-8.1-.4-12.15-.61,4.83-.49,9.65-.98,14.24-1.45-1.41-5.83-2.36-11.72-4.3-17.27-2.22-6.32-8.07-7.68-13.99-8.09-5.26-.37-8.46-2.48-8.07-8.71-1.6,0-3-.05-4.39,0-13.18.53-26.36,1.12-39.54,1.54-.91.03-1.87-1.1-2.8-1.69Z" fill="#fcefd7" stroke-width="0"/><path d="M434.41,294.89c-5.04,0-10.08,0-15.11,0-3.28,0-6.56,0-9.84,0-6.36,0-12.73.02-19.09.02-.3-.2-.61-.19-.91.01-1.02-.42-2.03-.84-3.05-1.26.07-5.19.14-10.38.21-15.57,4.41-12.74,9.14-16.15,22.73-16.26,9.15-.07,18.3.07,27.44-.13,10.23-.22,22.45,7.82,21.59,21.6-.24,3.8-.05,7.62-.06,11.44-3.98.05-7.96.09-11.94.14h-2.13c-3.28,0-6.57,0-9.85,0Z" fill="#224651" stroke-width="0"/><path d="M386.62,278.11c-.07,5.19-.14,10.38-.21,15.57-7.59.31-15.19.71-22.78.78-.71,0-2.07-2.02-2.06-3.09.14-10.44.61-20.88.76-31.32.05-3.45-.82-6.9-.82-10.36.01-12.41.15-24.82.49-37.23.03-.91,2.01-2.45,3.17-2.53,4.3-.3,8.65-.03,12.97-.16,2.77-.08,3.35,1.33,3.3,3.71-.09,3.99-.1,7.99,0,11.98.29,11.77.27,23.57,1.16,35.3.45,5.85,2.63,11.57,4.02,17.36Z" fill="#fcefd7" stroke-width="0"/><path d="M568.06,455.23c-.98.25-1.96.51-2.94.76-1.99-.49-3.97-.98-5.96-1.47-.99-.72-1.99-1.44-2.98-2.16-.33-.37-.66-.74-.99-1.1-.2-.35-.41-.69-.61-1.04-.23-9.59-.45-19.19-.68-28.78,1.68-6.25,5.01-8.65,11.03-7.93,5.15.61,8.09,4.12,8.24,9.99.15,5.94.21,11.88.31,17.83-.17,5.28.11,10.73-5.43,13.9Z" fill="#224651" stroke-width="0"/><path d="M568.06,455.23c5.54-3.18,5.26-8.63,5.43-13.9,2.28,0,4.56,0,7.59,0,0,7.35,0,14.19,0,21.04-4.34-2.38-8.68-4.76-13.02-7.13Z" fill="#fbe3c3" stroke-width="0"/><path d="M386.34,310.59c.06,12.33.13,24.67.19,37-.37-1.7-1.05-3.4-1.07-5.1-.1-10.63-.04-21.25-.04-31.88.31,0,.61,0,.92-.02Z" fill="#fcefd7" stroke-width="0"/><path d="M446.39,294.89c3.98-.05,7.96-.09,11.94-.14-3.98.05-7.96.09-11.94.14Z" fill="#fcefd7" stroke-width="0"/><path d="M434.41,294.89c3.28,0,6.57,0,9.85,0-3.28,0-6.57,0-9.85,0Z" fill="#fcefd7" stroke-width="0"/><path d="M409.45,294.9c3.28,0,6.56,0,9.84,0-3.28,0-6.56,0-9.84,0Z" fill="#fcefd7" stroke-width="0"/><path d="M459.26,347.62c-.27.28-.53.56-.8.84-.17-.31-.14-.59.09-.85.24-.05.47-.05.71,0Z" fill="#fcdfb8" stroke-width="0"/><path d="M389.46,294.94c.3-.2.6-.21.91-.01-.3,0-.6,0-.91.01Z" fill="#fcefd7" stroke-width="0"/><path d="M392.33,451.35c-1,2.34-2,4.69-2.99,7.03-1.76-3.52,1.04-5.09,2.99-7.03Z" fill="#fcefd7" stroke-width="0"/><path d="M411.37,424.41c-.99,1.02-1.98,2.04-2.96,3.06.99-1.02,1.98-2.04,2.96-3.06Z" fill="#fcefd7" stroke-width="0"/><path d="M400.44,437.42c-.67,1.01-1.34,2.01-2.02,3.02.67-1.01,1.34-2.01,2.02-3.02Z" fill="#fcefd7" stroke-width="0"/><path d="M388.67,460.41c-.41,1.03-.82,2.06-1.23,3.09.41-1.03.82-2.06,1.23-3.09Z" fill="#fcefd7" stroke-width="0"/><path d="M405.48,430.43c-.36.66-.72,1.33-1.09,1.99.36-.66.72-1.33,1.09-1.99Z" fill="#fcefd7" stroke-width="0"/><path d="M396.49,443.41c-.36.66-.72,1.33-1.08,1.99.36-.66.72-1.33,1.08-1.99Z" fill="#fcefd7" stroke-width="0"/><path d="M397.67,441.44c-.41.68-.81,1.35-1.22,2.03.41-.68.81-1.35,1.22-2.03Z" fill="#fcefd7" stroke-width="0"/><path d="M407.44,428.43c-.35.35-.69.7-1.04,1.06.35-.35.69-.7,1.04-1.06Z" fill="#fcefd7" stroke-width="0"/><path d="M401.29,436.38c-.3.36-.6.72-.9,1.07.3-.36.6-.72.9-1.07Z" fill="#fcefd7" stroke-width="0"/><path d="M395.42,445.39c-.3.46-.6.92-.9,1.38.3-.46.6-.92.9-1.38Z" fill="#fcefd7" stroke-width="0"/><path d="M403.03,434.48c-.23.23-.45.46-.68.69.16-.29.39-.52.68-.69Z" fill="#fcefd7" stroke-width="0"/><path d="M408.43,427.43c-.35.35-.69.7-1.04,1.05.35-.35.69-.7,1.04-1.05Z" fill="#fcefd7" stroke-width="0"/><path d="M411.38,423.41c.35.02.69.03,1.04.05-.35.32-.7.64-1.06.96,0-.34.01-.68.02-1.01Z" fill="#fcefd7" stroke-width="0"/><path d="M404.4,432.41c-.33.37-.66.73-1,1.1.33-.37.66-.73,1-1.1Z" fill="#fcefd7" stroke-width="0"/><path d="M406.45,429.44c-.35.35-.69.71-1.04,1.06.35-.35.69-.71,1.04-1.06Z" fill="#fcefd7" stroke-width="0"/><path d="M256,179.65c.34-.91.68-1.82,1.02-2.72,5.64-.74,11.27-1.48,16.91-2.21.13.7.25,1.39.38,2.09-6.1.95-12.2,1.9-18.3,2.85Z" fill="#fbe3c3" stroke-width="0"/><path d="M256.77,171.66c.03-.9.07-1.8.1-2.7,5.73-.62,11.45-1.24,17.18-1.86.09.57.18,1.14.28,1.71-5.85.95-11.7,1.9-17.56,2.85Z" fill="#fbe3c3" stroke-width="0"/><path d="M257.22,138.88c-.1-.9-.2-1.79-.3-2.68,3.72-.38,7.43-.82,11.15-1.11,1.93-.15,3.88-.03,5.82-.03.06.44.11.89.17,1.33-5.61.83-11.23,1.66-16.84,2.49Z" fill="#fbe3c3" stroke-width="0"/><path d="M257.08,131.79c-.04-.91-.08-1.82-.11-2.72,4.97-.72,9.94-1.44,14.91-2.16.1.45.19.9.29,1.35-5.03,1.18-10.06,2.35-15.09,3.53Z" fill="#fbe3c3" stroke-width="0"/><path d="M256.69,134.41c.01-.62.02-1.24.04-1.85-.01.62-.02,1.24-.04,1.85Z" fill="#fbe3c3" stroke-width="0"/><path d="M505.34,515.05c-3.62,8.16-9.19,13.82-18.5,15.21-9.27,1.38-20.53-7.81-22.56-15.89-.47-12.39,4.17-20.35,13.88-23.84,13.64-4.9,28.49,6.55,27.31,21.04-.09,1.16-.09,2.32-.13,3.48Z" fill="#fbfbee" stroke-width="0"/><path d="M155.59,515.23c-1.92,2.65-3.66,5.47-5.8,7.93-6.23,7.17-19.32,10.55-27.69,1.85-3.04-3.16-5.71-6.66-8.54-10.01.03-6.52.43-12.86,5.24-18.06,6.2-6.72,14.87-9.3,22.4-6.37,8.4,3.27,14.53,12.02,14.48,20.7,0,1.32-.05,2.65-.08,3.97Z" fill="#fbfbee" stroke-width="0"/><path d="M439.43,406.61c3.42-1.38,6.81-2.88,10.3-4.07,1.18-.4,2.63-.01,3.96.02-4.75,1.35-9.5,2.7-14.25,4.05Z" fill="#fcefd7" stroke-width="0"/><path d="M431.33,410.38c2.7-1.28,5.4-2.56,8.1-3.83-2.7,1.28-5.4,2.56-8.1,3.83Z" fill="#fcefd7" stroke-width="0"/><path d="M417.36,419.42c1.32-1.01,2.63-2.01,3.95-3.02-1.32,1.01-2.63,2.01-3.95,3.02Z" fill="#fcefd7" stroke-width="0"/><path d="M455.31,402.43c.88-3,2.45-2.28,4.17-.78-1.39.26-2.78.52-4.17.78Z" fill="#fcefd7" stroke-width="0"/><path d="M427.35,412.45c1.3-.67,2.6-1.35,3.91-2.02-1.3.67-2.6,1.35-3.91,2.02Z" fill="#fcefd7" stroke-width="0"/><path d="M414.38,421.47c.61-.37,1.21-.74,1.82-1.1-.61.37-1.21.74-1.82,1.1Z" fill="#fcefd7" stroke-width="0"/><path d="M425.37,413.52c.66-.36,1.32-.71,1.98-1.07-.66.36-1.32.71-1.98,1.07Z" fill="#fcefd7" stroke-width="0"/><path d="M422.35,415.45c.64-.35,1.28-.7,1.92-1.05-.64.35-1.28.7-1.92,1.05Z" fill="#fcefd7" stroke-width="0"/><path d="M413.38,422.45c.35-.34.69-.67,1.04-1.01-.35.34-.69.67-1.04,1.01Z" fill="#fcefd7" stroke-width="0"/><path d="M421.34,416.38c.34-.32.68-.63,1.02-.95-.34.32-.68.63-1.02.95Z" fill="#fcefd7" stroke-width="0"/><path d="M424.33,414.36c.36-.3.72-.59,1.09-.89-.36.3-.72.59-1.09.89Z" fill="#fcefd7" stroke-width="0"/><path d="M412.39,423.48c.33-.35.67-.7,1-1.04-.33.35-.67.7-1,1.04Z" fill="#fcefd7" stroke-width="0"/><path d="M416.34,420.26c.34-.28.68-.56,1.02-.84-.34.28-.68.56-1.02.84Z" fill="#fcefd7" stroke-width="0"/><path d="M559.15,454.53c1.99.49,3.97.98,5.96,1.47-1.99-.49-3.97-.98-5.96-1.47Z" fill="#fbe3c3" stroke-width="0"/><path d="M555.19,451.26c.33.37.66.74.99,1.1-.33-.37-.66-.74-.99-1.1Z" fill="#fbe3c3" stroke-width="0"/></svg>